<?xml version="1.0" encoding="UTF-8"?>
<svg width="700pt" height="700pt" version="1.1" viewBox="0 0 700 700" xmlns="http://www.w3.org/2000/svg" xmlns:xlink="http://www.w3.org/1999/xlink">
 <defs>
  <symbol id="v" overflow="visible">
   <path d="m5.5156-0.32812c-0.28125 0.14844-0.57812 0.25781-0.89062 0.32812-0.30469 0.070312-0.625 0.10938-0.96875 0.10938-1 0-1.793-0.27344-2.375-0.82812-0.58594-0.5625-0.875-1.3203-0.875-2.2812 0-0.95703 0.28906-1.7109 0.875-2.2656 0.58203-0.5625 1.375-0.84375 2.375-0.84375 0.34375 0 0.66406 0.039063 0.96875 0.10938 0.3125 0.074219 0.60938 0.18359 0.89062 0.32812v1.25c-0.28125-0.19531-0.5625-0.33594-0.84375-0.42188-0.28125-0.09375-0.57812-0.14062-0.89062-0.14062-0.55469 0-0.98438 0.17969-1.2969 0.53125-0.3125 0.35547-0.46875 0.83984-0.46875 1.4531 0 0.625 0.15625 1.1172 0.46875 1.4688 0.3125 0.35547 0.74219 0.53125 1.2969 0.53125 0.3125 0 0.60938-0.046875 0.89062-0.14062s0.5625-0.23828 0.84375-0.4375z"/>
  </symbol>
  <symbol id="d" overflow="visible">
   <path d="m4.0312-3.2812c-0.125-0.050781-0.25-0.09375-0.375-0.125s-0.25-0.046875-0.375-0.046875c-0.36719 0-0.65234 0.12109-0.85938 0.35938-0.19922 0.24219-0.29688 0.57812-0.29688 1.0156v2.0781h-1.4375v-4.5h1.4375v0.73438c0.1875-0.28906 0.39844-0.50391 0.64062-0.64062 0.23828-0.13281 0.52344-0.20312 0.85938-0.20312 0.050781 0 0.10156 0.007813 0.15625 0.015625 0.0625 0 0.14453 0.007812 0.25 0.015625z"/>
  </symbol>
  <symbol id="a" overflow="visible">
   <path d="m5.1875-2.2656v0.40625h-3.3594c0.03125 0.34375 0.14844 0.60156 0.35938 0.76562 0.20703 0.16797 0.5 0.25 0.875 0.25 0.30078 0 0.60938-0.039062 0.92188-0.125 0.32031-0.09375 0.64844-0.23438 0.98438-0.42188v1.125c-0.33594 0.125-0.67188 0.21875-1.0156 0.28125s-0.68359 0.09375-1.0156 0.09375c-0.82422 0-1.4609-0.20312-1.9062-0.60938-0.44922-0.41406-0.67188-1-0.67188-1.75 0-0.72656 0.21875-1.3008 0.65625-1.7188 0.44531-0.42578 1.0547-0.64062 1.8281-0.64062 0.70703 0 1.2734 0.21484 1.7031 0.64062 0.42578 0.42969 0.64062 0.99609 0.64062 1.7031zm-1.4844-0.46875c0-0.28125-0.078125-0.50391-0.23438-0.67188-0.15625-0.16406-0.36719-0.25-0.625-0.25-0.28125 0-0.51172 0.078125-0.6875 0.23438-0.16797 0.15625-0.27344 0.38672-0.3125 0.6875z"/>
  </symbol>
  <symbol id="e" overflow="visible">
   <path d="m2.7031-2.0312c-0.29297 0-0.51562 0.054688-0.67188 0.15625-0.14844 0.10547-0.21875 0.25781-0.21875 0.45312 0 0.17969 0.054688 0.32031 0.17188 0.42188 0.125 0.10547 0.29688 0.15625 0.51562 0.15625 0.26953 0 0.49219-0.09375 0.67188-0.28125 0.1875-0.19531 0.28125-0.44141 0.28125-0.73438v-0.17188zm2.2031-0.53125v2.5625h-1.4531v-0.67188c-0.1875 0.28125-0.40625 0.48438-0.65625 0.60938-0.24219 0.11328-0.53125 0.17188-0.875 0.17188-0.46875 0-0.85156-0.13281-1.1406-0.40625-0.28125-0.26953-0.42188-0.61719-0.42188-1.0469 0-0.53125 0.17578-0.92188 0.53125-1.1719 0.36328-0.25 0.9375-0.375 1.7188-0.375h0.84375v-0.10938c0-0.22656-0.089844-0.39453-0.26562-0.5-0.17969-0.10156-0.46094-0.15625-0.84375-0.15625-0.30469 0-0.58984 0.03125-0.85938 0.09375-0.26172 0.0625-0.50781 0.15625-0.73438 0.28125v-1.0938c0.30078-0.082031 0.60938-0.14062 0.92188-0.17188 0.3125-0.039063 0.625-0.0625 0.9375-0.0625 0.8125 0 1.3945 0.16406 1.75 0.48438 0.36328 0.3125 0.54688 0.83594 0.54688 1.5625z"/>
  </symbol>
  <symbol id="c" overflow="visible">
   <path d="m2.2656-5.7812v1.2812h1.4844v1.0312h-1.4844v1.9062c0 0.21094 0.039063 0.35156 0.125 0.42188 0.082031 0.074219 0.25 0.10938 0.5 0.10938h0.73438v1.0312h-1.2344c-0.57422 0-0.98047-0.11719-1.2188-0.35938-0.23047-0.23828-0.34375-0.64062-0.34375-1.2031v-1.9062h-0.71875v-1.0312h0.71875v-1.2812z"/>
  </symbol>
  <symbol id="k" overflow="visible">
   <path d="m3.75-3.8438v-2.4062h1.4531v6.25h-1.4531v-0.65625c-0.19922 0.27344-0.41797 0.46875-0.65625 0.59375-0.24219 0.11328-0.51562 0.17188-0.82812 0.17188-0.55469 0-1.0078-0.21875-1.3594-0.65625-0.35547-0.4375-0.53125-1.0039-0.53125-1.7031 0-0.6875 0.17578-1.25 0.53125-1.6875 0.35156-0.44531 0.80469-0.67188 1.3594-0.67188 0.3125 0 0.58594 0.0625 0.82812 0.1875 0.23828 0.125 0.45703 0.32031 0.65625 0.57812zm-0.9375 2.9219c0.30078 0 0.53125-0.11328 0.6875-0.34375 0.16406-0.22656 0.25-0.55469 0.25-0.98438 0-0.42578-0.085938-0.75-0.25-0.96875-0.15625-0.22656-0.38672-0.34375-0.6875-0.34375-0.3125 0-0.55469 0.11719-0.71875 0.34375-0.15625 0.21875-0.23438 0.54297-0.23438 0.96875 0 0.42969 0.078125 0.75781 0.23438 0.98438 0.16406 0.23047 0.40625 0.34375 0.71875 0.34375z"/>
  </symbol>
  <symbol id="j" overflow="visible">
   <path d="m3.0938-0.92188c0.30078 0 0.53125-0.11328 0.6875-0.34375 0.16406-0.22656 0.25-0.55469 0.25-0.98438 0-0.42578-0.085938-0.75-0.25-0.96875-0.15625-0.22656-0.38672-0.34375-0.6875-0.34375-0.3125 0-0.55469 0.11719-0.71875 0.34375-0.16797 0.21875-0.25 0.54297-0.25 0.96875 0 0.42969 0.082031 0.75781 0.25 0.98438 0.16406 0.23047 0.40625 0.34375 0.71875 0.34375zm-0.96875-2.9219c0.19531-0.25781 0.41406-0.45312 0.65625-0.57812 0.25-0.125 0.53125-0.1875 0.84375-0.1875 0.55078 0 1.0039 0.22656 1.3594 0.67188 0.36328 0.4375 0.54688 1 0.54688 1.6875 0 0.69922-0.18359 1.2656-0.54688 1.7031-0.35547 0.4375-0.80859 0.65625-1.3594 0.65625-0.3125 0-0.59375-0.058594-0.84375-0.17188-0.24219-0.125-0.46094-0.32031-0.65625-0.59375v0.65625h-1.4375v-6.25h1.4375z"/>
  </symbol>
  <symbol id="i" overflow="visible">
   <path d="m0.09375-4.5h1.4531l1.2031 3.0469 1.0312-3.0469h1.4375l-1.8906 4.9219c-0.1875 0.5-0.41406 0.84766-0.67188 1.0469-0.25 0.20703-0.58594 0.3125-1 0.3125h-0.82812v-0.95312h0.45312c0.23828 0 0.41016-0.042969 0.51562-0.125 0.11328-0.074219 0.20312-0.21094 0.26562-0.40625l0.046875-0.125z"/>
  </symbol>
  <symbol id="h" overflow="visible">
   <path d="m0.75-6h1.9688l1.375 3.2031 1.375-3.2031h1.9688v6h-1.4688v-4.3906l-1.375 3.2344h-0.98438l-1.3906-3.2344v4.3906h-1.4688z"/>
  </symbol>
  <symbol id="u" overflow="visible">
   <path d="m1.8281-2.2969-1.625-2.2031h1.5312l0.92188 1.3281 0.92188-1.3281h1.5312l-1.625 2.1875 1.7031 2.3125h-1.5312l-1-1.4219-1 1.4219h-1.5312z"/>
  </symbol>
  <symbol id="t" overflow="visible">
   <path d="m0.6875-4.5h1.4375v4.5h-1.4375zm0-1.75h1.4375v1.1719h-1.4375z"/>
  </symbol>
  <symbol id="g" overflow="visible">
   <path d="m4.3281-4.3594v1.1719c-0.19922-0.13281-0.39844-0.23438-0.59375-0.29688-0.1875-0.0625-0.39062-0.09375-0.60938-0.09375-0.39844 0-0.71094 0.12109-0.9375 0.35938-0.21875 0.23047-0.32812 0.55469-0.32812 0.96875 0 0.42969 0.10938 0.76172 0.32812 1 0.22656 0.23047 0.53906 0.34375 0.9375 0.34375 0.22656 0 0.44141-0.03125 0.64062-0.09375 0.20703-0.070312 0.39453-0.17578 0.5625-0.3125v1.1875c-0.21875 0.074219-0.44922 0.12891-0.6875 0.17188-0.23047 0.039062-0.46094 0.0625-0.6875 0.0625-0.8125 0-1.4492-0.20703-1.9062-0.625-0.46094-0.41406-0.6875-0.99219-0.6875-1.7344 0-0.73828 0.22656-1.3164 0.6875-1.7344 0.45703-0.41406 1.0938-0.625 1.9062-0.625 0.22656 0 0.45703 0.023437 0.6875 0.0625 0.22656 0.042969 0.45703 0.10547 0.6875 0.1875z"/>
  </symbol>
  <symbol id="b" overflow="visible">
   <path d="m2.8281-3.5781c-0.3125 0-0.55469 0.11719-0.71875 0.34375-0.16797 0.23047-0.25 0.55859-0.25 0.98438 0 0.4375 0.082031 0.77344 0.25 1 0.16406 0.23047 0.40625 0.34375 0.71875 0.34375 0.32031 0 0.5625-0.11328 0.71875-0.34375 0.16406-0.22656 0.25-0.5625 0.25-1 0-0.42578-0.085937-0.75391-0.25-0.98438-0.15625-0.22656-0.39844-0.34375-0.71875-0.34375zm0-1.0312c0.78125 0 1.3828 0.21094 1.8125 0.625 0.4375 0.41797 0.65625 0.99609 0.65625 1.7344 0 0.74219-0.21875 1.3203-0.65625 1.7344-0.42969 0.41797-1.0312 0.625-1.8125 0.625-0.77344 0-1.375-0.20703-1.8125-0.625-0.4375-0.41406-0.65625-0.99219-0.65625-1.7344 0-0.73828 0.21875-1.3164 0.65625-1.7344 0.4375-0.41406 1.0391-0.625 1.8125-0.625z"/>
  </symbol>
  <symbol id="f" overflow="visible">
   <path d="m5.2188-2.7344v2.7344h-1.4531v-2.0938c0-0.39453-0.011719-0.66406-0.03125-0.8125-0.011719-0.14453-0.039063-0.25391-0.078125-0.32812-0.054688-0.09375-0.13281-0.16406-0.23438-0.21875-0.09375-0.050781-0.20312-0.078125-0.32812-0.078125-0.30469 0-0.54297 0.12109-0.71875 0.35938-0.16797 0.23047-0.25 0.54688-0.25 0.95312v2.2188h-1.4375v-4.5h1.4375v0.65625c0.21875-0.25781 0.44531-0.45312 0.6875-0.57812 0.25-0.125 0.51953-0.1875 0.8125-0.1875 0.51953 0 0.91406 0.16406 1.1875 0.48438 0.26953 0.3125 0.40625 0.77734 0.40625 1.3906z"/>
  </symbol>
  <symbol id="s" overflow="visible">
   <path d="m4.2031-4.3594v1.0938c-0.30469-0.13281-0.60156-0.23438-0.89062-0.29688-0.28125-0.0625-0.55469-0.09375-0.8125-0.09375-0.27344 0-0.47656 0.039062-0.60938 0.10938-0.125 0.0625-0.1875 0.16797-0.1875 0.3125 0 0.11719 0.046875 0.20312 0.14062 0.26562 0.10156 0.0625 0.28516 0.10938 0.54688 0.14062l0.25 0.03125c0.73828 0.09375 1.2344 0.25 1.4844 0.46875 0.25781 0.21094 0.39062 0.54297 0.39062 1 0 0.48047-0.17969 0.83984-0.53125 1.0781-0.35547 0.24219-0.88672 0.35938-1.5938 0.35938-0.29297 0-0.60156-0.027344-0.92188-0.078125-0.3125-0.039062-0.63672-0.10938-0.96875-0.20312v-1.0938c0.28125 0.14844 0.57031 0.25781 0.875 0.32812 0.30078 0.0625 0.60938 0.09375 0.92188 0.09375 0.28125 0 0.48828-0.035156 0.625-0.10938 0.14453-0.082031 0.21875-0.19531 0.21875-0.34375 0-0.13281-0.054687-0.23438-0.15625-0.29688-0.09375-0.0625-0.28906-0.10938-0.57812-0.14062l-0.25-0.03125c-0.63672-0.082031-1.0859-0.23438-1.3438-0.45312-0.26172-0.21875-0.39062-0.54688-0.39062-0.98438 0-0.47656 0.16016-0.83203 0.48438-1.0625 0.33203-0.22656 0.83594-0.34375 1.5156-0.34375 0.25781 0 0.53516 0.023437 0.82812 0.0625 0.28906 0.042969 0.60938 0.10547 0.95312 0.1875z"/>
  </symbol>
  <symbol id="r" overflow="visible">
   <path d="m3.6562-6.25v0.9375h-0.79688c-0.21094 0-0.35547 0.039062-0.4375 0.10938-0.074219 0.074219-0.10938 0.20312-0.10938 0.39062v0.3125h1.2344v1.0312h-1.2344v3.4688h-1.4375v-3.4688h-0.71875v-1.0312h0.71875v-0.3125c0-0.48828 0.13281-0.84766 0.40625-1.0781 0.26953-0.23828 0.69141-0.35938 1.2656-0.35938z"/>
  </symbol>
  <symbol id="q" overflow="visible">
   <path d="m4.8594-3.75c0.1875-0.28125 0.40625-0.49219 0.65625-0.64062 0.25-0.14453 0.52344-0.21875 0.82812-0.21875 0.50781 0 0.89844 0.16406 1.1719 0.48438 0.26953 0.3125 0.40625 0.77734 0.40625 1.3906v2.7344h-1.4375v-2.3438-0.10938-0.17188c0-0.3125-0.046875-0.53906-0.14062-0.6875-0.09375-0.14453-0.24609-0.21875-0.45312-0.21875-0.27344 0-0.48438 0.11719-0.64062 0.34375-0.14844 0.23047-0.21875 0.55469-0.21875 0.96875v2.2188h-1.4531v-2.3438c0-0.5-0.042969-0.82031-0.125-0.96875-0.085937-0.14453-0.23438-0.21875-0.45312-0.21875-0.28125 0-0.5 0.11719-0.65625 0.34375-0.14844 0.23047-0.21875 0.55469-0.21875 0.96875v2.2188h-1.4375v-4.5h1.4375v0.65625c0.17578-0.25 0.37891-0.4375 0.60938-0.5625 0.22656-0.13281 0.48438-0.20312 0.76562-0.20312 0.3125 0 0.58594 0.078125 0.82812 0.23438 0.23828 0.14844 0.41406 0.35547 0.53125 0.625z"/>
  </symbol>
  <symbol id="p" overflow="visible">
   <path d="m5.2188-2.7344v2.7344h-1.4531v-2.0938c0-0.39453-0.011719-0.66406-0.03125-0.8125-0.011719-0.14453-0.039063-0.25391-0.078125-0.32812-0.054688-0.09375-0.13281-0.16406-0.23438-0.21875-0.09375-0.050781-0.20312-0.078125-0.32812-0.078125-0.30469 0-0.54297 0.12109-0.71875 0.35938-0.16797 0.23047-0.25 0.54688-0.25 0.95312v2.2188h-1.4375v-6.25h1.4375v2.4062c0.21875-0.25781 0.44531-0.45312 0.6875-0.57812 0.25-0.125 0.51953-0.1875 0.8125-0.1875 0.51953 0 0.91406 0.16406 1.1875 0.48438 0.26953 0.3125 0.40625 0.77734 0.40625 1.3906z"/>
  </symbol>
  <symbol id="o" overflow="visible">
   <path d="m0.75-6h1.7344l2.1875 4.1094v-4.1094h1.4688v6h-1.7344l-2.1875-4.125v4.125h-1.4688z"/>
  </symbol>
  <symbol id="n" overflow="visible">
   <path d="m0.64062-1.75v-2.75h1.4531v0.45312c0 0.24219-0.007812 0.54688-0.015625 0.92188v0.73438c0 0.35547 0.007813 0.61719 0.03125 0.78125 0.019531 0.15625 0.050781 0.27344 0.09375 0.34375 0.0625 0.09375 0.14062 0.16797 0.23438 0.21875 0.09375 0.054687 0.20312 0.078125 0.32812 0.078125 0.30078 0 0.53516-0.11328 0.70312-0.34375 0.17578-0.23828 0.26562-0.5625 0.26562-0.96875v-2.2188h1.4375v4.5h-1.4375v-0.65625c-0.21875 0.27344-0.45312 0.46875-0.70312 0.59375-0.24219 0.11328-0.50781 0.17188-0.79688 0.17188-0.52344 0-0.91797-0.15625-1.1875-0.46875-0.27344-0.32031-0.40625-0.78516-0.40625-1.3906z"/>
  </symbol>
  <symbol id="m" overflow="visible">
   <path d="m0.75-6h2.5781c0.75781 0 1.3438 0.17188 1.75 0.51562 0.41406 0.33594 0.625 0.8125 0.625 1.4375 0 0.63672-0.21094 1.125-0.625 1.4688-0.40625 0.33594-0.99219 0.5-1.75 0.5h-1.0312v2.0781h-1.5469zm1.5469 1.125v1.6719h0.85938c0.30078 0 0.53125-0.070313 0.6875-0.21875 0.16406-0.14453 0.25-0.35156 0.25-0.625 0-0.26953-0.085938-0.47266-0.25-0.60938-0.15625-0.14453-0.38672-0.21875-0.6875-0.21875z"/>
  </symbol>
  <symbol id="l" overflow="visible">
   <path d="m0.6875-4.5h1.4375v4.4219c0 0.60156-0.14844 1.0625-0.4375 1.375-0.28125 0.32031-0.69922 0.48438-1.25 0.48438h-0.70312v-0.95312h0.23438c0.28125 0 0.46875-0.0625 0.5625-0.1875 0.10156-0.11719 0.15625-0.35547 0.15625-0.71875zm0-1.75h1.4375v1.1719h-1.4375z"/>
  </symbol>
 </defs>
 <g>
  <path d="m498.38 359.87c-0.84766-3.5391-4.4062-5.7188-7.9453-4.8711-3.5352 0.85156-5.7148 4.4102-4.8672 7.9453 0.46875 1.9531 0.95312 3.9219 1.457 5.9062 2.1406 8.418 3.4609 17.023 3.9375 25.695 1.4492 27.117 4.668 78.668 9.9531 119.28v-0.003906c0.46875 3.6094 3.7734 6.1562 7.3828 5.6875 3.6094-0.47266 6.1523-3.7773 5.6836-7.3867-5.2305-40.18-8.4258-91.352-9.8633-118.28v0.003906c-0.51953-9.5312-1.9688-18.984-4.3203-28.23-0.48828-1.9219-0.96094-3.8359-1.418-5.7422z"/>
  <path d="m475.8 311.45c-2.3828 22.195-6.5469 44.16-12.453 65.688-6.7344 25.215-6.5273 51.785 0.60156 76.895 2.2695 8.0391 4.0312 16.211 5.2812 24.469l5.6016 52.094v-0.003906c0.35938 3.3477 3.1797 5.8828 6.543 5.8867 0.23828 0 0.47266-0.015624 0.71094-0.039062 1.7383-0.1875 3.3281-1.0547 4.4258-2.418 1.0977-1.3594 1.6094-3.1016 1.4219-4.8359l-5.6211-52.25v-0.003906c-1.3164-8.9336-3.2148-17.777-5.6797-26.469-6.4883-22.82-6.6836-46.969-0.56641-69.891 5.9609-21.762 10.199-43.953 12.684-66.379 18.793-39.141 16.738-82.781 16.637-84.633-0.070313-1.7617-0.83984-3.4219-2.1445-4.6133-1.3008-1.1875-3.0273-1.8047-4.7891-1.7109-1.7617 0.089844-3.4102 0.88672-4.582 2.207-1.168 1.3203-1.7617 3.0547-1.6445 4.8125 0.019532 0.42188 1.9922 42.156-15.406 78.32l0.003907 0.003906c-0.56641 0.85938-0.91797 1.8438-1.0234 2.8711z"/>
  <path d="m191.7 519.5c1.7344 0.22656 3.4844-0.24609 4.8711-1.3125 1.3828-1.0664 2.2891-2.6367 2.5156-4.3711 5.2852-40.602 8.5039-92.156 9.957-119.28h-0.003906c0.47656-8.6719 1.793-17.277 3.9375-25.695 0.5-1.9766 0.98828-3.9453 1.457-5.9062v0.003906c0.84766-3.5391-1.332-7.0977-4.8672-7.9453-3.5391-0.85156-7.0977 1.3281-7.9453 4.8672-0.45703 1.9023-0.92969 3.8164-1.418 5.7422-2.3516 9.25-3.8008 18.703-4.3203 28.23-1.4414 26.93-4.6367 78.109-9.8633 118.28-0.46875 3.6094 2.0742 6.9141 5.6797 7.3828z"/>
  <path d="m354.01 178.87c-3.6406 0-6.5898 2.9492-6.5898 6.5859v81.109c0 3.6406 2.9492 6.5898 6.5898 6.5898 3.6367 0 6.5859-2.9492 6.5859-6.5898v-81.109c0-1.7461-0.69141-3.4219-1.9297-4.6562-1.2344-1.2344-2.9102-1.9297-4.6562-1.9297z"/>
  <path d="m328.3 285.61c-3.3008-1.5117-7.1992-0.078125-8.7305 3.2109-4.3672 8.4023-10.898 15.484-18.918 20.516-8.0234 5.0312-17.242 7.8281-26.707 8.1016-3.6367 0.066406-6.5352 3.0703-6.4688 6.707 0.066406 3.6406 3.0703 6.5352 6.707 6.4727h0.24219c40.77-1.4805 56.477-34.871 57.125-36.293 1.5078-3.3047 0.050781-7.207-3.25-8.7148z"/>
  <path d="m347.42 486.92c0 3.6367 2.9492 6.5859 6.5898 6.5859 3.6367 0 6.5859-2.9492 6.5859-6.5859v-144.65c0-3.6367-2.9492-6.5898-6.5859-6.5898-3.6406 0-6.5898 2.9531-6.5898 6.5898z"/>
  <path d="m314.07 457.34c-0.078125 0.1875-8.1445 18.914-31.457 31.188l-0.003906 0.003906c-1.5703 0.79688-2.7539 2.1953-3.2891 3.875-0.53516 1.6797-0.375 3.5039 0.44922 5.0625 0.82031 1.5625 2.2305 2.7266 3.918 3.2383s3.5117 0.32422 5.0586-0.51953c27.465-14.453 37.082-36.809 37.48-37.754 1.4062-3.3555-0.17188-7.2148-3.5273-8.6211-3.3555-1.4062-7.2188 0.17188-8.625 3.5273z"/>
  <path d="m201.63 223.34c-3.6289-0.17578-6.7227 2.6055-6.9297 6.2344-0.097657 1.8477-2.1406 45.293 16.52 84.371 2.4805 22.508 6.7305 44.789 12.711 66.629 6.1172 22.922 5.9219 47.074-0.56641 69.895-2.4766 8.7383-4.3828 17.633-5.6953 26.625l-5.6016 52.094c-0.19531 1.7422 0.3125 3.4883 1.4102 4.8555 1.0938 1.3672 2.6914 2.2383 4.4336 2.4258 1.7422 0.1875 3.4883-0.32422 4.8477-1.4258 1.3633-1.1055 2.2305-2.7031 2.4102-4.4453l5.5859-51.938c1.2461-8.3125 3.0156-16.539 5.3008-24.629 7.1289-25.109 7.3359-51.68 0.60156-76.895-5.9062-21.527-10.07-43.492-12.453-65.688-0.015625-0.15234-0.0625-0.28906-0.089844-0.4375-0.035156-0.23438-0.082031-0.46875-0.14453-0.69922-0.066406-0.22266-0.14844-0.44531-0.24219-0.66016-0.058593-0.14453-0.089843-0.29297-0.16406-0.43359-17.68-36.195-15.727-78.535-15.703-78.961 0.1875-3.6289-2.6016-6.7227-6.2305-6.918z"/>
  <path d="m425.92 330.61c3.6367 0.0625 6.6406-2.832 6.707-6.4727 0.0625-3.6367-2.8359-6.6406-6.4727-6.7031-9.4648-0.27734-18.684-3.0742-26.703-8.1055-8.0234-5.0312-14.555-12.113-18.922-20.512-1.5508-3.2461-5.418-4.6445-8.6875-3.1445-3.2695 1.4961-4.7344 5.3438-3.2891 8.6367 0.64844 1.4219 16.355 34.812 57.121 36.293 0.082031 0.003906 0.16406 0.007812 0.24609 0.007812z"/>
  <path d="m386.02 457.31c-1.4414-3.3086-5.2734-4.8438-8.5977-3.4414-3.3281 1.4023-4.9062 5.2188-3.543 8.5586 0.39453 0.94531 10.016 23.301 37.477 37.754 3.2227 1.6953 7.207 0.46094 8.9023-2.7578 1.6914-3.2188 0.45703-7.2031-2.7617-8.8984-23.039-12.129-31.359-30.945-31.477-31.215z"/>
  <path d="m561.2 360.41c-1.8984-7.0977-3.332-14.312-4.293-21.598-0.070312-1.0742-0.15234-1.8438-0.19531-2.1953h0.003906c-0.042969-0.24609-0.097656-0.49219-0.16797-0.73047-0.80859-7.0547-1.1367-14.152-0.98438-21.246 0.94141-41.867 0.57422-116.54-12.434-147.44-1.457-4.6602-14.121-40.809-58.355-48.293-35.09-5.9375-72.027-35.41-81.289-43.207l0.027344-27.539h-0.003906c1.7891-2.8945 2.7266-6.2344 2.7109-9.6367l-0.046875-7.2852v0.003906c-0.027343-3.5938-2.9258-6.5-6.5156-6.5391h-0.16406c-1.707-0.019531-3.3516 0.64062-4.5664 1.8438-1.2109 1.1992-1.8945 2.832-1.8945 4.5391v7.5312c0.011719 1.1758-0.39844 2.3164-1.1523 3.2148-9.4922 11.234-23.609 20.168-33.781 25.684-5.1758 2.8086-11.438 2.7344-16.547-0.19531-10.039-5.7656-23.941-15.027-33.16-26.484-0.73438-0.91797-1.1172-2.0664-1.0781-3.2422l0.023438-0.82422 0.003906-6.8633c0-3.4961-2.8125-6.3438-6.3125-6.3867h-0.03125 0.003906c-3.5703-0.003907-6.5039 2.8203-6.6367 6.3906l-0.22266 7.2812 0.003907-0.003906c-0.10156 3.4258 0.77344 6.8086 2.5156 9.7578l-0.13281 28.738c-9.2266 7.7695-46.18 37.281-81.301 43.23-44.238 7.4844-56.902 43.648-58.355 48.297-13.012 30.898-13.379 105.58-12.434 147.44h-0.003906c0.30078 15.445-1.5977 30.855-5.6406 45.77-7.9727 30.57-11.773 62.082-11.297 93.672 0.050781 3.6016 2.9844 6.4961 6.5898 6.4961h0.09375-0.003906c1.75-0.023438 3.4141-0.74219 4.6328-1.9961 1.2188-1.25 1.8906-2.9375 1.8633-4.6836-0.41406-28.684 2.8086-57.301 9.5977-85.172 0.92578 1.2305 1.9648 2.3789 3.0977 3.4258 4.8594 4.3945 11.238 6.7344 17.789 6.5273 2.7227-0.015625 5.4336-0.30078 8.1016-0.84766 3.4258-0.64062 5.8008-3.7852 5.4805-7.2539-0.20703-1.8359-1.1797-3.5-2.6758-4.5859-1.4922-1.0859-3.375-1.4922-5.1836-1.1211-6.5781 1.3438-11.344 0.55859-14.57-2.3984-6.4102-5.875-6.3945-19.543-5.8516-24.32v-0.085937c0.93359-7.875 1.3203-15.805 1.1523-23.73-1.5703-69.688 2.6367-121.55 11.52-142.3l-0.003906-0.003907c0.10547-0.24609 0.19531-0.5 0.27344-0.76172 0.39453-1.3438 10.113-32.973 48.023-39.387 44.102-7.4648 88.223-46.605 90.078-48.258 1.3867-1.2422 2.1836-3.0117 2.1914-4.875l0.085938-17.703c7.8203 6.6953 16.27 12.621 25.23 17.695 9.082 5.1641 20.184 5.293 29.387 0.34766 9.1836-4.918 17.867-10.723 25.918-17.332l-0.015625 16.949c-0.003906 1.875 0.79688 3.6641 2.1914 4.9141 1.8555 1.6641 45.973 40.801 90.078 48.266 37.91 6.4141 47.625 38.047 48.016 39.363l0.003906 0.003907c0.074218 0.26562 0.16797 0.53125 0.27734 0.78516 8.8945 20.742 13.09 72.605 11.52 142.3-0.18359 8.6016 0.28516 17.199 1.3984 25.73 0.31641 5.8164-0.30469 17.188-6 22.41-3.1875 2.9219-7.8789 3.7227-14.328 2.4492l-0.003906-0.003906c-3.0781-0.69141-6.2227 0.84375-7.5781 3.6953-0.82422 1.8242-0.76953 3.9297 0.14062 5.7109 0.91406 1.7852 2.5898 3.0547 4.5547 3.457 2.75 0.57812 5.5508 0.87891 8.3594 0.89844 6.5508 0.20703 12.926-2.1328 17.789-6.5312 1.1055-1.0195 2.1172-2.1367 3.0273-3.3359 6.668 27.414 9.8906 55.559 9.5898 83.773-0.027344 3.4688 2.1484 6.5703 5.418 7.7305 0.36328 0.16406 0.75781 0.25391 1.1523 0.26172 3.6055 0 6.5391-2.8945 6.5898-6.5 0.47656-31.594-3.3242-63.109-11.293-93.684z"/>
  <use x="70" y="584.707031" xlink:href="#v"/>
  <use x="76.042969" y="584.707031" xlink:href="#d"/>
  <use x="80.105469" y="584.707031" xlink:href="#a"/>
  <use x="85.691406" y="584.707031" xlink:href="#e"/>
  <use x="91.246094" y="584.707031" xlink:href="#c"/>
  <use x="95.183594" y="584.707031" xlink:href="#a"/>
  <use x="100.769531" y="584.707031" xlink:href="#k"/>
  <use x="109.53125" y="584.707031" xlink:href="#j"/>
  <use x="115.425781" y="584.707031" xlink:href="#i"/>
  <use x="123.664062" y="584.707031" xlink:href="#h"/>
  <use x="131.855469" y="584.707031" xlink:href="#e"/>
  <use x="137.414062" y="584.707031" xlink:href="#u"/>
  <use x="142.726562" y="584.707031" xlink:href="#t"/>
  <use x="145.550781" y="584.707031" xlink:href="#g"/>
  <use x="150.429688" y="584.707031" xlink:href="#b"/>
  <use x="156.089844" y="584.707031" xlink:href="#f"/>
  <use x="161.953125" y="584.707031" xlink:href="#s"/>
  <use x="70" y="592.941406" xlink:href="#r"/>
  <use x="73.582031" y="592.941406" xlink:href="#d"/>
  <use x="77.644531" y="592.941406" xlink:href="#b"/>
  <use x="83.300781" y="592.941406" xlink:href="#q"/>
  <use x="94.75" y="592.941406" xlink:href="#c"/>
  <use x="98.6875" y="592.941406" xlink:href="#p"/>
  <use x="104.550781" y="592.941406" xlink:href="#a"/>
  <use x="113.003906" y="592.941406" xlink:href="#o"/>
  <use x="119.894531" y="592.941406" xlink:href="#b"/>
  <use x="125.550781" y="592.941406" xlink:href="#n"/>
  <use x="131.414063" y="592.941406" xlink:href="#f"/>
  <use x="140.144531" y="592.941406" xlink:href="#m"/>
  <use x="146.179688" y="592.941406" xlink:href="#d"/>
  <use x="150.242188" y="592.941406" xlink:href="#b"/>
  <use x="155.898438" y="592.941406" xlink:href="#l"/>
  <use x="158.722656" y="592.941406" xlink:href="#a"/>
  <use x="164.308594" y="592.941406" xlink:href="#g"/>
  <use x="169.1875" y="592.941406" xlink:href="#c"/>
 </g>
</svg>
