<?xml version="1.0" encoding="UTF-8"?>
<svg width="700pt" height="700pt" version="1.1" viewBox="0 0 700 700" xmlns="http://www.w3.org/2000/svg" xmlns:xlink="http://www.w3.org/1999/xlink">
 <defs>
  <symbol id="v" overflow="visible">
   <path d="m5.5156-0.32812c-0.28125 0.14844-0.57812 0.25781-0.89062 0.32812-0.30469 0.070312-0.625 0.10938-0.96875 0.10938-1 0-1.793-0.27344-2.375-0.82812-0.58594-0.5625-0.875-1.3203-0.875-2.2812 0-0.95703 0.28906-1.7109 0.875-2.2656 0.58203-0.5625 1.375-0.84375 2.375-0.84375 0.34375 0 0.66406 0.039063 0.96875 0.10938 0.3125 0.074219 0.60938 0.18359 0.89062 0.32812v1.25c-0.28125-0.19531-0.5625-0.33594-0.84375-0.42188-0.28125-0.09375-0.57812-0.14062-0.89062-0.14062-0.55469 0-0.98438 0.17969-1.2969 0.53125-0.3125 0.35547-0.46875 0.83984-0.46875 1.4531 0 0.625 0.15625 1.1172 0.46875 1.4688 0.3125 0.35547 0.74219 0.53125 1.2969 0.53125 0.3125 0 0.60938-0.046875 0.89062-0.14062s0.5625-0.23828 0.84375-0.4375z"/>
  </symbol>
  <symbol id="d" overflow="visible">
   <path d="m4.0312-3.2812c-0.125-0.050781-0.25-0.09375-0.375-0.125s-0.25-0.046875-0.375-0.046875c-0.36719 0-0.65234 0.12109-0.85938 0.35938-0.19922 0.24219-0.29688 0.57812-0.29688 1.0156v2.0781h-1.4375v-4.5h1.4375v0.73438c0.1875-0.28906 0.39844-0.50391 0.64062-0.64062 0.23828-0.13281 0.52344-0.20312 0.85938-0.20312 0.050781 0 0.10156 0.007813 0.15625 0.015625 0.0625 0 0.14453 0.007812 0.25 0.015625z"/>
  </symbol>
  <symbol id="a" overflow="visible">
   <path d="m5.1875-2.2656v0.40625h-3.3594c0.03125 0.34375 0.14844 0.60156 0.35938 0.76562 0.20703 0.16797 0.5 0.25 0.875 0.25 0.30078 0 0.60938-0.039062 0.92188-0.125 0.32031-0.09375 0.64844-0.23438 0.98438-0.42188v1.125c-0.33594 0.125-0.67188 0.21875-1.0156 0.28125s-0.68359 0.09375-1.0156 0.09375c-0.82422 0-1.4609-0.20312-1.9062-0.60938-0.44922-0.41406-0.67188-1-0.67188-1.75 0-0.72656 0.21875-1.3008 0.65625-1.7188 0.44531-0.42578 1.0547-0.64062 1.8281-0.64062 0.70703 0 1.2734 0.21484 1.7031 0.64062 0.42578 0.42969 0.64062 0.99609 0.64062 1.7031zm-1.4844-0.46875c0-0.28125-0.078125-0.50391-0.23438-0.67188-0.15625-0.16406-0.36719-0.25-0.625-0.25-0.28125 0-0.51172 0.078125-0.6875 0.23438-0.16797 0.15625-0.27344 0.38672-0.3125 0.6875z"/>
  </symbol>
  <symbol id="e" overflow="visible">
   <path d="m2.7031-2.0312c-0.29297 0-0.51562 0.054688-0.67188 0.15625-0.14844 0.10547-0.21875 0.25781-0.21875 0.45312 0 0.17969 0.054688 0.32031 0.17188 0.42188 0.125 0.10547 0.29688 0.15625 0.51562 0.15625 0.26953 0 0.49219-0.09375 0.67188-0.28125 0.1875-0.19531 0.28125-0.44141 0.28125-0.73438v-0.17188zm2.2031-0.53125v2.5625h-1.4531v-0.67188c-0.1875 0.28125-0.40625 0.48438-0.65625 0.60938-0.24219 0.11328-0.53125 0.17188-0.875 0.17188-0.46875 0-0.85156-0.13281-1.1406-0.40625-0.28125-0.26953-0.42188-0.61719-0.42188-1.0469 0-0.53125 0.17578-0.92188 0.53125-1.1719 0.36328-0.25 0.9375-0.375 1.7188-0.375h0.84375v-0.10938c0-0.22656-0.089844-0.39453-0.26562-0.5-0.17969-0.10156-0.46094-0.15625-0.84375-0.15625-0.30469 0-0.58984 0.03125-0.85938 0.09375-0.26172 0.0625-0.50781 0.15625-0.73438 0.28125v-1.0938c0.30078-0.082031 0.60938-0.14062 0.92188-0.17188 0.3125-0.039063 0.625-0.0625 0.9375-0.0625 0.8125 0 1.3945 0.16406 1.75 0.48438 0.36328 0.3125 0.54688 0.83594 0.54688 1.5625z"/>
  </symbol>
  <symbol id="c" overflow="visible">
   <path d="m2.2656-5.7812v1.2812h1.4844v1.0312h-1.4844v1.9062c0 0.21094 0.039063 0.35156 0.125 0.42188 0.082031 0.074219 0.25 0.10938 0.5 0.10938h0.73438v1.0312h-1.2344c-0.57422 0-0.98047-0.11719-1.2188-0.35938-0.23047-0.23828-0.34375-0.64062-0.34375-1.2031v-1.9062h-0.71875v-1.0312h0.71875v-1.2812z"/>
  </symbol>
  <symbol id="k" overflow="visible">
   <path d="m3.75-3.8438v-2.4062h1.4531v6.25h-1.4531v-0.65625c-0.19922 0.27344-0.41797 0.46875-0.65625 0.59375-0.24219 0.11328-0.51562 0.17188-0.82812 0.17188-0.55469 0-1.0078-0.21875-1.3594-0.65625-0.35547-0.4375-0.53125-1.0039-0.53125-1.7031 0-0.6875 0.17578-1.25 0.53125-1.6875 0.35156-0.44531 0.80469-0.67188 1.3594-0.67188 0.3125 0 0.58594 0.0625 0.82812 0.1875 0.23828 0.125 0.45703 0.32031 0.65625 0.57812zm-0.9375 2.9219c0.30078 0 0.53125-0.11328 0.6875-0.34375 0.16406-0.22656 0.25-0.55469 0.25-0.98438 0-0.42578-0.085938-0.75-0.25-0.96875-0.15625-0.22656-0.38672-0.34375-0.6875-0.34375-0.3125 0-0.55469 0.11719-0.71875 0.34375-0.15625 0.21875-0.23438 0.54297-0.23438 0.96875 0 0.42969 0.078125 0.75781 0.23438 0.98438 0.16406 0.23047 0.40625 0.34375 0.71875 0.34375z"/>
  </symbol>
  <symbol id="j" overflow="visible">
   <path d="m3.0938-0.92188c0.30078 0 0.53125-0.11328 0.6875-0.34375 0.16406-0.22656 0.25-0.55469 0.25-0.98438 0-0.42578-0.085938-0.75-0.25-0.96875-0.15625-0.22656-0.38672-0.34375-0.6875-0.34375-0.3125 0-0.55469 0.11719-0.71875 0.34375-0.16797 0.21875-0.25 0.54297-0.25 0.96875 0 0.42969 0.082031 0.75781 0.25 0.98438 0.16406 0.23047 0.40625 0.34375 0.71875 0.34375zm-0.96875-2.9219c0.19531-0.25781 0.41406-0.45312 0.65625-0.57812 0.25-0.125 0.53125-0.1875 0.84375-0.1875 0.55078 0 1.0039 0.22656 1.3594 0.67188 0.36328 0.4375 0.54688 1 0.54688 1.6875 0 0.69922-0.18359 1.2656-0.54688 1.7031-0.35547 0.4375-0.80859 0.65625-1.3594 0.65625-0.3125 0-0.59375-0.058594-0.84375-0.17188-0.24219-0.125-0.46094-0.32031-0.65625-0.59375v0.65625h-1.4375v-6.25h1.4375z"/>
  </symbol>
  <symbol id="i" overflow="visible">
   <path d="m0.09375-4.5h1.4531l1.2031 3.0469 1.0312-3.0469h1.4375l-1.8906 4.9219c-0.1875 0.5-0.41406 0.84766-0.67188 1.0469-0.25 0.20703-0.58594 0.3125-1 0.3125h-0.82812v-0.95312h0.45312c0.23828 0 0.41016-0.042969 0.51562-0.125 0.11328-0.074219 0.20312-0.21094 0.26562-0.40625l0.046875-0.125z"/>
  </symbol>
  <symbol id="h" overflow="visible">
   <path d="m0.75-6h1.9688l1.375 3.2031 1.375-3.2031h1.9688v6h-1.4688v-4.3906l-1.375 3.2344h-0.98438l-1.3906-3.2344v4.3906h-1.4688z"/>
  </symbol>
  <symbol id="u" overflow="visible">
   <path d="m1.8281-2.2969-1.625-2.2031h1.5312l0.92188 1.3281 0.92188-1.3281h1.5312l-1.625 2.1875 1.7031 2.3125h-1.5312l-1-1.4219-1 1.4219h-1.5312z"/>
  </symbol>
  <symbol id="t" overflow="visible">
   <path d="m0.6875-4.5h1.4375v4.5h-1.4375zm0-1.75h1.4375v1.1719h-1.4375z"/>
  </symbol>
  <symbol id="g" overflow="visible">
   <path d="m4.3281-4.3594v1.1719c-0.19922-0.13281-0.39844-0.23438-0.59375-0.29688-0.1875-0.0625-0.39062-0.09375-0.60938-0.09375-0.39844 0-0.71094 0.12109-0.9375 0.35938-0.21875 0.23047-0.32812 0.55469-0.32812 0.96875 0 0.42969 0.10938 0.76172 0.32812 1 0.22656 0.23047 0.53906 0.34375 0.9375 0.34375 0.22656 0 0.44141-0.03125 0.64062-0.09375 0.20703-0.070312 0.39453-0.17578 0.5625-0.3125v1.1875c-0.21875 0.074219-0.44922 0.12891-0.6875 0.17188-0.23047 0.039062-0.46094 0.0625-0.6875 0.0625-0.8125 0-1.4492-0.20703-1.9062-0.625-0.46094-0.41406-0.6875-0.99219-0.6875-1.7344 0-0.73828 0.22656-1.3164 0.6875-1.7344 0.45703-0.41406 1.0938-0.625 1.9062-0.625 0.22656 0 0.45703 0.023437 0.6875 0.0625 0.22656 0.042969 0.45703 0.10547 0.6875 0.1875z"/>
  </symbol>
  <symbol id="b" overflow="visible">
   <path d="m2.8281-3.5781c-0.3125 0-0.55469 0.11719-0.71875 0.34375-0.16797 0.23047-0.25 0.55859-0.25 0.98438 0 0.4375 0.082031 0.77344 0.25 1 0.16406 0.23047 0.40625 0.34375 0.71875 0.34375 0.32031 0 0.5625-0.11328 0.71875-0.34375 0.16406-0.22656 0.25-0.5625 0.25-1 0-0.42578-0.085937-0.75391-0.25-0.98438-0.15625-0.22656-0.39844-0.34375-0.71875-0.34375zm0-1.0312c0.78125 0 1.3828 0.21094 1.8125 0.625 0.4375 0.41797 0.65625 0.99609 0.65625 1.7344 0 0.74219-0.21875 1.3203-0.65625 1.7344-0.42969 0.41797-1.0312 0.625-1.8125 0.625-0.77344 0-1.375-0.20703-1.8125-0.625-0.4375-0.41406-0.65625-0.99219-0.65625-1.7344 0-0.73828 0.21875-1.3164 0.65625-1.7344 0.4375-0.41406 1.0391-0.625 1.8125-0.625z"/>
  </symbol>
  <symbol id="f" overflow="visible">
   <path d="m5.2188-2.7344v2.7344h-1.4531v-2.0938c0-0.39453-0.011719-0.66406-0.03125-0.8125-0.011719-0.14453-0.039063-0.25391-0.078125-0.32812-0.054688-0.09375-0.13281-0.16406-0.23438-0.21875-0.09375-0.050781-0.20312-0.078125-0.32812-0.078125-0.30469 0-0.54297 0.12109-0.71875 0.35938-0.16797 0.23047-0.25 0.54688-0.25 0.95312v2.2188h-1.4375v-4.5h1.4375v0.65625c0.21875-0.25781 0.44531-0.45312 0.6875-0.57812 0.25-0.125 0.51953-0.1875 0.8125-0.1875 0.51953 0 0.91406 0.16406 1.1875 0.48438 0.26953 0.3125 0.40625 0.77734 0.40625 1.3906z"/>
  </symbol>
  <symbol id="s" overflow="visible">
   <path d="m4.2031-4.3594v1.0938c-0.30469-0.13281-0.60156-0.23438-0.89062-0.29688-0.28125-0.0625-0.55469-0.09375-0.8125-0.09375-0.27344 0-0.47656 0.039062-0.60938 0.10938-0.125 0.0625-0.1875 0.16797-0.1875 0.3125 0 0.11719 0.046875 0.20312 0.14062 0.26562 0.10156 0.0625 0.28516 0.10938 0.54688 0.14062l0.25 0.03125c0.73828 0.09375 1.2344 0.25 1.4844 0.46875 0.25781 0.21094 0.39062 0.54297 0.39062 1 0 0.48047-0.17969 0.83984-0.53125 1.0781-0.35547 0.24219-0.88672 0.35938-1.5938 0.35938-0.29297 0-0.60156-0.027344-0.92188-0.078125-0.3125-0.039062-0.63672-0.10938-0.96875-0.20312v-1.0938c0.28125 0.14844 0.57031 0.25781 0.875 0.32812 0.30078 0.0625 0.60938 0.09375 0.92188 0.09375 0.28125 0 0.48828-0.035156 0.625-0.10938 0.14453-0.082031 0.21875-0.19531 0.21875-0.34375 0-0.13281-0.054687-0.23438-0.15625-0.29688-0.09375-0.0625-0.28906-0.10938-0.57812-0.14062l-0.25-0.03125c-0.63672-0.082031-1.0859-0.23438-1.3438-0.45312-0.26172-0.21875-0.39062-0.54688-0.39062-0.98438 0-0.47656 0.16016-0.83203 0.48438-1.0625 0.33203-0.22656 0.83594-0.34375 1.5156-0.34375 0.25781 0 0.53516 0.023437 0.82812 0.0625 0.28906 0.042969 0.60938 0.10547 0.95312 0.1875z"/>
  </symbol>
  <symbol id="r" overflow="visible">
   <path d="m3.6562-6.25v0.9375h-0.79688c-0.21094 0-0.35547 0.039062-0.4375 0.10938-0.074219 0.074219-0.10938 0.20312-0.10938 0.39062v0.3125h1.2344v1.0312h-1.2344v3.4688h-1.4375v-3.4688h-0.71875v-1.0312h0.71875v-0.3125c0-0.48828 0.13281-0.84766 0.40625-1.0781 0.26953-0.23828 0.69141-0.35938 1.2656-0.35938z"/>
  </symbol>
  <symbol id="q" overflow="visible">
   <path d="m4.8594-3.75c0.1875-0.28125 0.40625-0.49219 0.65625-0.64062 0.25-0.14453 0.52344-0.21875 0.82812-0.21875 0.50781 0 0.89844 0.16406 1.1719 0.48438 0.26953 0.3125 0.40625 0.77734 0.40625 1.3906v2.7344h-1.4375v-2.3438-0.10938-0.17188c0-0.3125-0.046875-0.53906-0.14062-0.6875-0.09375-0.14453-0.24609-0.21875-0.45312-0.21875-0.27344 0-0.48438 0.11719-0.64062 0.34375-0.14844 0.23047-0.21875 0.55469-0.21875 0.96875v2.2188h-1.4531v-2.3438c0-0.5-0.042969-0.82031-0.125-0.96875-0.085937-0.14453-0.23438-0.21875-0.45312-0.21875-0.28125 0-0.5 0.11719-0.65625 0.34375-0.14844 0.23047-0.21875 0.55469-0.21875 0.96875v2.2188h-1.4375v-4.5h1.4375v0.65625c0.17578-0.25 0.37891-0.4375 0.60938-0.5625 0.22656-0.13281 0.48438-0.20312 0.76562-0.20312 0.3125 0 0.58594 0.078125 0.82812 0.23438 0.23828 0.14844 0.41406 0.35547 0.53125 0.625z"/>
  </symbol>
  <symbol id="p" overflow="visible">
   <path d="m5.2188-2.7344v2.7344h-1.4531v-2.0938c0-0.39453-0.011719-0.66406-0.03125-0.8125-0.011719-0.14453-0.039063-0.25391-0.078125-0.32812-0.054688-0.09375-0.13281-0.16406-0.23438-0.21875-0.09375-0.050781-0.20312-0.078125-0.32812-0.078125-0.30469 0-0.54297 0.12109-0.71875 0.35938-0.16797 0.23047-0.25 0.54688-0.25 0.95312v2.2188h-1.4375v-6.25h1.4375v2.4062c0.21875-0.25781 0.44531-0.45312 0.6875-0.57812 0.25-0.125 0.51953-0.1875 0.8125-0.1875 0.51953 0 0.91406 0.16406 1.1875 0.48438 0.26953 0.3125 0.40625 0.77734 0.40625 1.3906z"/>
  </symbol>
  <symbol id="o" overflow="visible">
   <path d="m0.75-6h1.7344l2.1875 4.1094v-4.1094h1.4688v6h-1.7344l-2.1875-4.125v4.125h-1.4688z"/>
  </symbol>
  <symbol id="n" overflow="visible">
   <path d="m0.64062-1.75v-2.75h1.4531v0.45312c0 0.24219-0.007812 0.54688-0.015625 0.92188v0.73438c0 0.35547 0.007813 0.61719 0.03125 0.78125 0.019531 0.15625 0.050781 0.27344 0.09375 0.34375 0.0625 0.09375 0.14062 0.16797 0.23438 0.21875 0.09375 0.054687 0.20312 0.078125 0.32812 0.078125 0.30078 0 0.53516-0.11328 0.70312-0.34375 0.17578-0.23828 0.26562-0.5625 0.26562-0.96875v-2.2188h1.4375v4.5h-1.4375v-0.65625c-0.21875 0.27344-0.45312 0.46875-0.70312 0.59375-0.24219 0.11328-0.50781 0.17188-0.79688 0.17188-0.52344 0-0.91797-0.15625-1.1875-0.46875-0.27344-0.32031-0.40625-0.78516-0.40625-1.3906z"/>
  </symbol>
  <symbol id="m" overflow="visible">
   <path d="m0.75-6h2.5781c0.75781 0 1.3438 0.17188 1.75 0.51562 0.41406 0.33594 0.625 0.8125 0.625 1.4375 0 0.63672-0.21094 1.125-0.625 1.4688-0.40625 0.33594-0.99219 0.5-1.75 0.5h-1.0312v2.0781h-1.5469zm1.5469 1.125v1.6719h0.85938c0.30078 0 0.53125-0.070313 0.6875-0.21875 0.16406-0.14453 0.25-0.35156 0.25-0.625 0-0.26953-0.085938-0.47266-0.25-0.60938-0.15625-0.14453-0.38672-0.21875-0.6875-0.21875z"/>
  </symbol>
  <symbol id="l" overflow="visible">
   <path d="m0.6875-4.5h1.4375v4.4219c0 0.60156-0.14844 1.0625-0.4375 1.375-0.28125 0.32031-0.69922 0.48438-1.25 0.48438h-0.70312v-0.95312h0.23438c0.28125 0 0.46875-0.0625 0.5625-0.1875 0.10156-0.11719 0.15625-0.35547 0.15625-0.71875zm0-1.75h1.4375v1.1719h-1.4375z"/>
  </symbol>
 </defs>
 <g>
  <path d="m168.25 496.56c0.17969 0.050781 0.35938 0.09375 0.54688 0.125 1.2422 0.23828 30.801 5.6602 61.688-3.9922h-0.003906c5.4414-1.6797 11.301-1.3789 16.539 0.85547 4.0234 1.6797 8.1719 3.0391 12.41 4.0625 6.8438 1.6758 13.867 2.5195 20.918 2.5078 12.512-0.027344 24.891-2.5469 36.418-7.4141 9.5781-4.0977 18.867-8.8438 27.801-14.203 19.445-11.547 42.766-17.406 69.316-17.414h0.019532c10.879 0.015624 21.613 2.4609 31.418 7.1641 12.656 6.0859 31.91 12.535 51.77 8.7422 15.945-3.0508 67.297-18.168 58.754-84.625-0.011719-0.085938-0.023438-0.17578-0.039062-0.25781-0.24609-1.4531-6.1836-35.906-20.801-66.406l0.003906-0.003906c-4.5156-9.4727-6.8359-19.84-6.7891-30.332 0.11719-21.113 1.4453-42.199 3.9844-63.156 2.7148-23.477 5.8867-50.008 9.4297-78.867l-0.003906 0.003906c0.44531-3.6133-2.125-6.8984-5.7383-7.3438-3.6094-0.44141-6.8984 2.1289-7.3398 5.7383-3.543 28.883-6.7188 55.449-9.4375 78.953v0.003907c-2.5938 21.438-3.9531 43.004-4.0703 64.598-0.058594 12.484 2.6992 24.824 8.0703 36.098 13.387 27.93 19.277 60.559 19.672 62.789 6.8008 53.434-31.418 66.656-48.18 69.863-16.328 3.1289-32.715-2.4492-43.582-7.6719h0.003906c-11.594-5.5547-24.277-8.4492-37.133-8.4648h-0.023437c-28.949 0-54.535 6.4883-76.043 19.258h0.003906c-8.418 5.0547-17.164 9.5273-26.188 13.395-15.48 6.625-32.68 8.1172-49.07 4.2539-3.5547-0.85938-7.0352-1.9922-10.41-3.3984-8.1172-3.457-17.195-3.918-25.621-1.3047-26.223 8.1992-52.227 4.1484-55.051 3.668-5.9062-1.7109-9.9648-4.6953-12.402-9.125-5.1875-9.418-1.4102-22.309-1.3789-22.418v0.003907c0.17578-0.57031 0.27344-1.1602 0.28906-1.7539 0.035156-1.7539 1.2383-3.2695 2.9375-3.707 10.113-2.4688 22.492-4.3438 30.637-5.4336-1.5078 7.9062-8.0703 12.477-19.91 13.895h-0.003906c-3.4531 0.42187-5.9883 3.457-5.7852 6.9297 0.20703 3.4766 3.082 6.1914 6.5625 6.1992 0.26562 0.003906 0.53125-0.011719 0.79297-0.042969 19.484-2.3359 30.965-12.949 31.801-28.824 37.77-6.9648 70.855-32.027 72.305-33.133 0.078124-0.058594 0.15625-0.12109 0.23047-0.18359 25.695-21.559 59.16-42.789 76.82-53.531h0.003906c15.707-9.5039 29.086-22.406 39.156-37.758l0.75781-1.1758h-0.003907c8.0117-12.535 12.93-26.797 14.355-41.605 2.1406-22.617 4-55.801 0.64844-85.426-3.957-35.062-6.5977-95.938-7.5469-120.48-0.15234-3.6289-3.207-6.4492-6.8359-6.3086s-6.4609 3.1875-6.332 6.8203c1.1875 30.668 3.7617 87.223 7.6289 121.45 3.2227 28.492 1.4102 60.707-0.67188 82.703-1.2227 12.719-5.4531 24.969-12.332 35.738l-0.71094 1.1055c-8.9883 13.695-20.93 25.203-34.949 33.68-17.953 10.91-51.98 32.496-78.324 54.578-2.0859 1.5703-35.223 26.105-70.43 31.207h0.003907c-13.781 1.5-27.465 3.7695-40.988 6.7969-3.4805 0.86328-6.6016 2.8008-8.9219 5.5352-2.3203 2.7344-3.7227 6.125-4.0117 9.7031-0.99609 3.7656-4.3398 18.961 2.6172 31.699 4.2109 7.707 11.191 12.969 20.75 15.641z"/>
  <path d="m486.38 347.38c-1.2734 1.2148-2.0078 2.8867-2.043 4.6484-0.03125 1.7578 0.64062 3.457 1.8672 4.7188 1.2305 1.2617 2.9102 1.9805 4.6719 1.9922 1.7617 0.011719 3.4531-0.67969 4.6992-1.9219 0.51563-0.50391 1.0078-1.0039 1.4922-1.5234v-0.003906c5.3516-5.9023 8.6133-13.406 9.2773-21.352 0.66406-7.9414-1.3047-15.883-5.6055-22.598-1.9023-2.918-3.6289-5.9492-5.1641-9.0742-1.457-3.3359-5.3398-4.8594-8.6758-3.4062-3.332 1.457-4.8594 5.3398-3.4023 8.6758 1.7812 3.7383 3.8125 7.3516 6.0859 10.812 2.7578 4.2539 4.043 9.2969 3.6523 14.352-0.39062 5.0547-2.4336 9.8398-5.8164 13.617-0.33203 0.35547-0.67578 0.71094-1.0391 1.0625z"/>
  <use x="70" y="584.707031" xlink:href="#v"/>
  <use x="76.042969" y="584.707031" xlink:href="#d"/>
  <use x="80.105469" y="584.707031" xlink:href="#a"/>
  <use x="85.691406" y="584.707031" xlink:href="#e"/>
  <use x="91.246094" y="584.707031" xlink:href="#c"/>
  <use x="95.183594" y="584.707031" xlink:href="#a"/>
  <use x="100.769531" y="584.707031" xlink:href="#k"/>
  <use x="109.53125" y="584.707031" xlink:href="#j"/>
  <use x="115.425781" y="584.707031" xlink:href="#i"/>
  <use x="123.664062" y="584.707031" xlink:href="#h"/>
  <use x="131.855469" y="584.707031" xlink:href="#e"/>
  <use x="137.414062" y="584.707031" xlink:href="#u"/>
  <use x="142.726562" y="584.707031" xlink:href="#t"/>
  <use x="145.550781" y="584.707031" xlink:href="#g"/>
  <use x="150.429688" y="584.707031" xlink:href="#b"/>
  <use x="156.089844" y="584.707031" xlink:href="#f"/>
  <use x="161.953125" y="584.707031" xlink:href="#s"/>
  <use x="70" y="592.941406" xlink:href="#r"/>
  <use x="73.582031" y="592.941406" xlink:href="#d"/>
  <use x="77.644531" y="592.941406" xlink:href="#b"/>
  <use x="83.300781" y="592.941406" xlink:href="#q"/>
  <use x="94.75" y="592.941406" xlink:href="#c"/>
  <use x="98.6875" y="592.941406" xlink:href="#p"/>
  <use x="104.550781" y="592.941406" xlink:href="#a"/>
  <use x="113.003906" y="592.941406" xlink:href="#o"/>
  <use x="119.894531" y="592.941406" xlink:href="#b"/>
  <use x="125.550781" y="592.941406" xlink:href="#n"/>
  <use x="131.414063" y="592.941406" xlink:href="#f"/>
  <use x="140.144531" y="592.941406" xlink:href="#m"/>
  <use x="146.179688" y="592.941406" xlink:href="#d"/>
  <use x="150.242188" y="592.941406" xlink:href="#b"/>
  <use x="155.898438" y="592.941406" xlink:href="#l"/>
  <use x="158.722656" y="592.941406" xlink:href="#a"/>
  <use x="164.308594" y="592.941406" xlink:href="#g"/>
  <use x="169.1875" y="592.941406" xlink:href="#c"/>
 </g>
</svg>
