<svg width="120" height="22" viewBox="0 0 120 22" fill="none" xmlns="http://www.w3.org/2000/svg">
<path fill-rule="evenodd" clip-rule="evenodd" d="M45.692 1.10889C45.7762 1.06861 45.8643 1.08933 45.9492 1.08917C47.0547 1.08751 48.1604 1.08817 49.2659 1.08817C49.579 1.08817 49.5785 1.08817 49.6675 1.3779C50.4232 3.83292 51.1788 6.28812 51.9348 8.74314C52.5134 10.6224 53.0922 12.5016 53.6716 14.3808C53.6971 14.4639 53.7285 14.5451 53.7649 14.6495C53.8223 14.5655 53.8369 14.4857 53.8604 14.4093C55.0697 10.4845 56.2791 6.55977 57.4889 2.63508C57.6268 2.18806 57.7649 1.74104 57.9041 1.29436C57.9681 1.08933 57.9696 1.08834 58.1804 1.08834C59.3416 1.08784 60.5028 1.08801 61.6642 1.08817C61.8842 1.08834 61.8857 1.08883 61.9529 1.30712C62.6536 3.58033 63.3538 5.85353 64.0543 8.1269C64.7078 10.2484 65.3617 12.37 66.0147 14.4919C66.0311 14.5456 66.047 14.5976 66.0961 14.651C66.2615 14.1138 66.4248 13.5846 66.5879 13.0552C67.7968 9.13033 69.0059 5.20513 70.2149 1.28011C70.2729 1.09149 70.2727 1.08867 70.4502 1.0885C71.6433 1.08767 72.8363 1.08801 74.0294 1.08883C74.0744 1.08883 74.1245 1.07342 74.179 1.12944C74.1102 1.36016 74.0403 1.60165 73.9659 1.84182C73.1986 4.32668 72.4291 6.81071 71.6632 9.29591C70.6145 12.6978 69.5685 16.1006 68.5211 19.503C68.3764 19.9729 68.2259 20.4408 68.0865 20.9122C68.0539 21.0221 68.0073 21.0629 67.8905 21.0624C66.6895 21.0584 65.4885 21.0566 64.2875 21.0645C64.1393 21.0655 64.0997 21.0019 64.0637 20.8842C63.7811 19.959 63.4936 19.0353 63.2091 18.1109C62.4208 15.5495 61.6336 12.9879 60.8454 10.4266C60.5633 9.50972 60.2804 8.59298 59.9975 7.67624C59.9811 7.62353 59.9602 7.57231 59.9352 7.5027C59.8455 7.64491 59.8195 7.79242 59.7767 7.93099C58.6891 11.4536 57.6044 14.9772 56.5195 18.5008C56.2768 19.2889 56.0352 20.0772 55.7927 20.8651C55.7333 21.0581 55.7328 21.0595 55.5371 21.0597C54.36 21.0602 53.1828 21.0604 52.0055 21.0597C51.7669 21.0595 51.8173 21.071 51.7528 20.8626C50.8158 17.8328 49.882 14.802 48.9475 11.7713C47.8775 8.30143 46.8071 4.83154 45.7402 1.36066C45.716 1.28176 45.6613 1.2027 45.692 1.10889" fill="white"/>
<mask id="mask0" mask-type="alpha" maskUnits="userSpaceOnUse" x="22" y="0" width="23" height="22">
<path fill-rule="evenodd" clip-rule="evenodd" d="M22.8354 0.39209H44.2339V21.7691H22.8354V0.39209Z" fill="white"/>
</mask>
<g mask="url(#mask0)">
<path fill-rule="evenodd" clip-rule="evenodd" d="M29.0639 10.966C29.0639 13.223 29.0639 15.4799 29.0639 17.7371C29.0639 17.8324 29.0619 17.9278 29.0666 18.0231C29.0841 18.38 29.371 18.6586 29.7287 18.679C29.9236 18.6903 30.0838 18.6076 30.2415 18.5137C31.5798 17.7183 32.9178 16.9224 34.2554 16.1258C35.9752 15.1019 37.6946 14.0771 39.4143 13.0526C40.233 12.5648 41.048 12.07 41.8729 11.5925C42.2752 11.3597 42.3582 10.7073 41.9275 10.4058C41.869 10.3648 41.808 10.3272 41.7465 10.2908C40.2243 9.38479 38.702 8.47915 37.1798 7.57335C35.0502 6.30606 32.9205 5.0386 30.7905 3.77164C30.5586 3.63357 30.3279 3.49269 30.0912 3.36274C29.562 3.07236 29.0183 3.5439 29.0633 3.98048C29.073 4.07495 29.0639 4.17109 29.0639 4.26656V10.966ZM33.5347 21.7692C27.6832 21.7677 22.8915 17.0908 22.8359 11.1904C22.7783 5.05153 27.7246 0.494843 33.2358 0.394235C36.303 0.338379 38.9373 1.37296 41.1056 3.53197C43.1861 5.60379 44.2379 8.14733 44.2339 11.0709C44.2258 17.0946 39.3656 21.771 33.5347 21.7692V21.7692Z" fill="#5C8EF1"/>
</g>
<path fill-rule="evenodd" clip-rule="evenodd" d="M104.866 11.0675V17.2195C104.866 17.275 104.869 17.3308 104.866 17.3864C104.862 17.4555 104.891 17.4891 104.962 17.4875C105.025 17.4861 105.089 17.4876 105.153 17.4876C106.687 17.4876 108.222 17.4876 109.757 17.4878C110.011 17.4878 110.263 17.4745 110.516 17.4424C112.283 17.2183 113.751 16.4323 114.863 15.0454C116.111 13.4888 116.536 11.7096 116.131 9.75012C115.84 8.3489 115.126 7.18785 114.046 6.25818C112.832 5.21448 111.412 4.68294 109.816 4.66073C108.249 4.63868 106.683 4.65559 105.116 4.65609C104.837 4.65625 104.866 4.62758 104.866 4.91564C104.866 6.96625 104.866 9.01686 104.866 11.0675V11.0675ZM101.291 11.0794C101.291 7.84354 101.291 4.60769 101.292 1.372C101.292 1.06752 101.243 1.08758 101.566 1.08741C104.271 1.08725 106.975 1.07697 109.68 1.09039C112.269 1.10316 114.558 1.94813 116.499 3.66973C118.209 5.18647 119.31 7.07564 119.685 9.33111C120.251 12.7316 119.297 15.6868 116.868 18.1327C115.352 19.6594 113.497 20.5703 111.371 20.9232C110.797 21.0185 110.221 21.0618 109.639 21.0616C106.935 21.0608 104.23 21.0613 101.526 21.0614C101.486 21.0614 101.446 21.0596 101.407 21.0616C101.33 21.0656 101.286 21.0389 101.291 20.9539C101.294 20.8904 101.291 20.8267 101.291 20.7631V11.0794Z" fill="white"/>
<path fill-rule="evenodd" clip-rule="evenodd" d="M15.3426 7.51616C15.1217 7.21484 14.912 6.93605 14.6697 6.68362C13.5277 5.49473 12.1411 4.81219 10.4929 4.68871C8.50476 4.53987 6.80272 5.19208 5.40482 6.5981C4.38813 7.62075 3.78946 8.86649 3.63001 10.3062C3.40145 12.3689 4.02051 14.1525 5.47642 15.6241C6.50935 16.6686 7.77515 17.2802 9.24217 17.4399C11.2875 17.6623 13.047 17.0379 14.5281 15.6185C14.9909 15.1749 14.9879 15.1718 14.9879 14.5287C14.9879 14.1631 14.9886 13.7974 14.9877 13.4318C14.9872 13.2254 14.9863 13.2236 14.7832 13.2235C13.6697 13.2228 12.5563 13.2231 11.4429 13.2231C11.0135 13.2231 10.584 13.2196 10.1548 13.2253C10.0336 13.2269 9.98902 13.1935 9.98968 13.0653C9.99399 11.9764 9.99366 10.8874 9.99001 9.79848C9.98951 9.68561 10.0198 9.63423 10.1367 9.64881C10.1758 9.65362 10.2161 9.64948 10.2559 9.64948C12.936 9.64964 15.6159 9.64931 18.296 9.64998C18.6042 9.65014 18.5622 9.61898 18.5624 9.916C18.5635 12.0861 18.5611 14.2562 18.5667 16.4263C18.567 16.5962 18.5198 16.7282 18.421 16.8622C17.1282 18.616 15.4525 19.8458 13.3873 20.5405C12.6096 20.802 11.8099 20.9555 10.99 21.0223C9.08322 21.1776 7.26714 20.8456 5.56659 19.9791C2.9483 18.645 1.20581 16.5616 0.372775 13.7379C0.0553716 12.6624 -0.0546837 11.5565 0.0248743 10.4393C0.186974 8.16042 1.02664 6.15622 2.55913 4.46081C4.1236 2.73009 6.06664 1.66368 8.36802 1.25014C9.26587 1.08887 10.1695 1.04826 11.0725 1.13296C13.3147 1.34329 15.2887 2.1934 16.9762 3.69042C17.4947 4.1502 17.9563 4.66401 18.3678 5.22208C18.4091 5.2781 18.4472 5.33677 18.4971 5.40904C17.4431 6.11296 16.4009 6.80926 15.3426 7.51616" fill="white"/>
<path fill-rule="evenodd" clip-rule="evenodd" d="M86.3047 17.4878C89.8528 17.4904 92.7311 14.6255 92.7354 11.089C92.7396 7.6312 89.9884 4.67048 86.3322 4.66418C82.6299 4.65788 79.9069 7.65871 79.9021 11.0618C79.8969 14.5803 82.7421 17.4796 86.3047 17.4878M86.3517 1.08838C92.0132 1.13578 96.4108 5.73457 96.3064 11.2599C96.2019 16.7822 91.6928 21.0966 86.2466 21.0584C80.6992 21.0196 76.1638 16.4591 76.3363 10.7613C76.4987 5.3991 80.8686 1.09866 86.3517 1.08838" fill="white"/>
</svg>
